<svg  viewBox="0 0 18 4" xmlns="http://www.w3.org/2000/svg">
  <path d="M1 1.75C0.861929 1.75 0.75 1.86193 0.75 2C0.75 2.13807 0.861929 2.25 1 2.25V1.75ZM17.1768 2.17678C17.2744 2.07915 17.2744 1.92085 17.1768 1.82322L15.5858 0.232233C15.4882 0.134602 15.3299 0.134602 15.2322 0.232233C15.1346 0.329864 15.1346 0.488155 15.2322 0.585786L16.6464 2L15.2322 3.41421C15.1346 3.51184 15.1346 3.67014 15.2322 3.76777C15.3299 3.8654 15.4882 3.8654 15.5858 3.76777L17.1768 2.17678ZM1 2.25H17V1.75H1V2.25Z" fill="#2A2E43" fill-opacity="1"></path>
</svg>